<svg width="24" height="24" viewBox="0 0 24 24" fill="none" xmlns="http://www.w3.org/2000/svg">
<path d="M17.5 11C13.916 11 11 13.916 11 17.5C11 21.084 13.916 24 17.5 24C21.084 24 24 21.084 24 17.5C24 13.916 21.084 11 17.5 11ZM17.5 23C14.467 23 12 20.533 12 17.5C12 14.467 14.467 12 17.5 12C20.533 12 23 14.467 23 17.5C23 20.533 20.533 23 17.5 23Z" fill="#3A4047"/>
<path d="M20.146 15.146L16.5 18.793L14.854 17.147C14.659 16.952 14.342 16.952 14.147 17.147C13.952 17.342 13.952 17.659 14.147 17.854L16.147 19.854C16.244 19.951 16.372 20 16.5 20C16.628 20 16.756 19.951 16.854 19.854L20.854 15.854C21.049 15.659 21.049 15.342 20.854 15.147C20.659 14.952 20.342 14.951 20.146 15.146Z" fill="#3A4047"/>
<path d="M9.5 18H1V8H20V10C20 10.276 20.224 10.5 20.5 10.5C20.776 10.5 21 10.276 21 10V2.5C21 2.224 20.776 2 20.5 2H17V0.5C17 0.224 16.776 0 16.5 0H13.5C13.224 0 13 0.224 13 0.5V2H8V0.5C8 0.224 7.776 0 7.5 0H4.5C4.224 0 4 0.224 4 0.5V2H0.5C0.224 2 0 2.224 0 2.5V18.5C0 18.776 0.224 19 0.5 19H9.5C9.776 19 10 18.776 10 18.5C10 18.224 9.776 18 9.5 18ZM14 1H16V4H14V1ZM5 1H7V4H5V1ZM4 3V4.5C4 4.776 4.224 5 4.5 5H7.5C7.776 5 8 4.776 8 4.5V3H13V4.5C13 4.776 13.224 5 13.5 5H16.5C16.776 5 17 4.776 17 4.5V3H20V7H1V3H4Z" fill="#3A4047"/>
</svg>
