<svg width="16" height="16" viewBox="0 0 16 16" fill="none" xmlns="http://www.w3.org/2000/svg">
<path d="M13.974 4.20533C13.9573 4.16467 13.9327 4.128 13.902 4.09733L9.90267 0.098C9.872 0.068 9.83533 0.0426667 9.79467 0.0266667C9.75467 0.00933333 9.71133 0 9.66667 0H4.33333C4.14933 0 4 0.149333 4 0.333333V2H2.33333C2.14933 2 2 2.14933 2 2.33333V15.6667C2 15.8507 2.14933 16 2.33333 16H11.6667C11.8507 16 12 15.8507 12 15.6667V14H13.6667C13.8507 14 14 13.8507 14 13.6667V4.33333C14 4.28867 13.9907 4.24533 13.974 4.20533ZM10 1.138L12.862 4H10V1.138ZM11.3333 15.3333H2.66667V2.66667H4V13.6667C4 13.8507 4.14933 14 4.33333 14H11.3333V15.3333ZM4.66667 13.3333V0.666667H9.33333V4.33333C9.33333 4.51733 9.48267 4.66667 9.66667 4.66667H13.3333V13.3333H4.66667Z" fill="#C4C6CA"/>
</svg>
