<svg width="48" height="48" viewBox="0 0 48 48" fill="none" xmlns="http://www.w3.org/2000/svg">
<path d="M42 8H6C3.794 8 2 9.792 2 12V34C2 36.206 3.794 38 6 38H42C44.206 38 46 36.206 46 34V12C46 9.792 44.206 8 42 8ZM42 10C42.114 10 42.21 10.046 42.318 10.064L24 24.72L5.682 10.064C5.79 10.046 5.886 10 6 10H42ZM44 34C44 35.102 43.102 36 42 36H6C4.898 36 4 35.102 4 34V12C4 11.782 4.06 11.58 4.124 11.382L23.374 26.782C23.558 26.926 23.78 27 24 27C24.22 27 24.442 26.926 24.624 26.782L43.874 11.382C43.94 11.58 44 11.782 44 12V34Z" fill="white"/>
</svg>
