<svg width="24" height="24" viewBox="0 0 24 24" fill="none" xmlns="http://www.w3.org/2000/svg">
<path d="M12 0C5.383 0 0 5.383 0 12C0 18.617 5.383 24 12 24C18.617 24 24 18.617 24 12C24 5.383 18.616 0 12 0ZM12 23C5.934 23 1 18.065 1 12C1 5.935 5.934 1 12 1C18.066 1 23 5.935 23 12C23 18.065 18.065 23 12 23Z" fill="#3A4047"/>
<path d="M19.826 9.122C19.618 8.941 19.302 8.964 19.121 9.173L13.031 16.223C12.718 16.082 12.374 16 12.009 16C10.625 16 9.49902 17.126 9.49902 18.51C9.49902 19.894 10.625 21.02 12.009 21.02C13.393 21.02 14.519 19.894 14.519 18.51C14.519 17.853 14.26 17.259 13.845 16.811L19.878 9.828C20.059 9.618 20.035 9.302 19.826 9.122ZM12.009 20.02C11.176 20.02 10.499 19.342 10.499 18.51C10.499 17.678 11.177 17 12.009 17C12.841 17 13.519 17.678 13.519 18.51C13.519 19.342 12.842 20.02 12.009 20.02Z" fill="#3A4047"/>
<path d="M10 12.5V9H14C14.276 9 14.5 8.776 14.5 8.5C14.5 8.224 14.276 8 14 8H10V6H15C15.276 6 15.5 5.776 15.5 5.5C15.5 5.224 15.276 5 15 5H9.5C9.223 5 9 5.224 9 5.5V12.5C9 12.776 9.223 13 9.5 13C9.777 13 10 12.776 10 12.5Z" fill="#3A4047"/>
</svg>
