<svg width="48" height="48" viewBox="0 0 48 48" fill="none" xmlns="http://www.w3.org/2000/svg">
<path d="M23 6C11.42 6 2 13.614 2 22.972C2 27.508 4.168 31.744 8.114 34.942C8.712 39.284 5.188 40.196 4.778 40.286C4.548 40.334 4.342 40.462 4.196 40.648C3.944 40.97 3.728 41.56 3.95 42.152C4.184 42.774 4.788 43.182 5.752 43.364C6.438 43.488 7.14 43.552 7.842 43.552C12.842 43.552 16.754 40.42 17.87 39.426C19.554 39.766 21.276 39.938 22.998 39.938C34.578 39.938 43.998 32.324 43.998 22.966C44 13.614 34.58 6 23 6ZM23 37.942C21.22 37.942 19.44 37.742 17.71 37.348C17.422 37.282 17.118 37.398 16.884 37.574C16.796 37.642 16.718 37.73 16.656 37.828C15.96 38.464 12.352 41.556 7.842 41.556C7.57 41.556 7.296 41.544 7.026 41.522C8.89 40.442 10.746 38.186 10.022 34.222C9.978 33.98 9.846 33.764 9.652 33.612C6.008 30.774 4 26.996 4 22.972C4 14.716 12.524 8 23 8C33.476 8 42 14.716 42 22.97C42 31.226 33.476 37.942 23 37.942Z" fill="white"/>
</svg>
