<svg width="24" height="24" viewBox="0 0 24 24" fill="none" xmlns="http://www.w3.org/2000/svg">
<path d="M12 0C5.383 0 0 5.383 0 12C0 18.617 5.383 24 12 24C18.617 24 24 18.617 24 12C24 5.383 18.616 0 12 0ZM12 23C5.934 23 1 18.065 1 12C1 5.935 5.934 1 12 1C18.066 1 23 5.935 23 12C23 18.065 18.065 23 12 23Z" fill="#3A4047"/>
<path d="M18.363 5.637C18.168 5.442 17.851 5.442 17.656 5.637L13.009 10.283C12.712 10.107 12.369 10 12 10C10.897 10 10 10.897 10 12C10 13.103 10.897 14 12 14C13.103 14 14 13.103 14 12C14 11.631 13.892 11.288 13.716 10.99L18.363 6.344C18.558 6.148 18.558 5.832 18.363 5.637ZM12 13C11.449 13 11 12.552 11 12C11 11.448 11.449 11 12 11C12.551 11 13 11.448 13 12C13 12.552 12.551 13 12 13Z" fill="#3A4047"/>
<path d="M4.94311 11.5C4.94311 11.224 4.71912 11 4.44311 11H2.44312C2.16712 11 1.94312 11.224 1.94312 11.5C1.94312 11.776 2.16712 12 2.44312 12H4.44311C4.72012 12 4.94311 11.776 4.94311 11.5Z" fill="#3A4047"/>
<path d="M4.87902 14.408L3.03002 15.173C2.77502 15.278 2.65402 15.57 2.75902 15.826C2.83902 16.018 3.02502 16.135 3.22102 16.135C3.28502 16.135 3.34902 16.123 3.41202 16.097L5.26102 15.332C5.51602 15.227 5.63702 14.935 5.53202 14.679C5.42702 14.424 5.13402 14.301 4.87902 14.408Z" fill="#3A4047"/>
<path d="M20.9671 15.174L19.1201 14.408C18.8661 14.302 18.5721 14.423 18.4671 14.679C18.3611 14.934 18.4821 15.227 18.7381 15.332L20.5851 16.098C20.6471 16.124 20.7121 16.136 20.7761 16.136C20.9721 16.136 21.1581 16.02 21.2381 15.827C21.3431 15.572 21.2221 15.279 20.9671 15.174Z" fill="#3A4047"/>
<path d="M21.499 11L19.499 10.999C19.223 10.999 18.999 11.223 18.999 11.499C18.999 11.775 19.223 11.999 19.499 11.999L21.499 12C21.775 12 21.999 11.776 21.999 11.5C21.999 11.224 21.775 11 21.499 11Z" fill="#3A4047"/>
<path d="M18.4661 9.321C18.5461 9.513 18.7321 9.63 18.9281 9.63C18.9921 9.63 19.0571 9.618 19.1191 9.592L20.9671 8.827C21.2221 8.722 21.3431 8.429 21.2381 8.174C21.1331 7.919 20.8391 7.797 20.5851 7.903L18.7371 8.668C18.4821 8.773 18.3611 9.066 18.4661 9.321Z" fill="#3A4047"/>
<path d="M15.3079 5.532C15.3709 5.559 15.4359 5.57 15.4999 5.57C15.6959 5.57 15.8819 5.454 15.9619 5.261L16.7279 3.414C16.8339 3.159 16.7129 2.866 16.4569 2.761C16.2029 2.655 15.9089 2.777 15.8039 3.032L15.0379 4.879C14.9319 5.134 15.0529 5.427 15.3079 5.532Z" fill="#3A4047"/>
<path d="M12.5 5.18599C12.776 5.18599 13 4.96199 13 4.68599V2.68599C13 2.40999 12.776 2.18599 12.5 2.18599C12.224 2.18599 12 2.40899 12 2.68599V4.68599C12 4.96199 12.223 5.18599 12.5 5.18599Z" fill="#3A4047"/>
<path d="M8.6669 5.262C8.7469 5.454 8.9329 5.57 9.1289 5.57C9.1929 5.57 9.2579 5.558 9.3199 5.532C9.5749 5.427 9.6959 5.134 9.5909 4.879L8.8269 3.031C8.7209 2.776 8.4279 2.653 8.1729 2.761C7.9179 2.866 7.7969 3.159 7.9029 3.414L8.6669 5.262Z" fill="#3A4047"/>
<path d="M7.04896 6.34301L5.63597 4.92901C5.44097 4.73401 5.12396 4.73401 4.92896 4.92901C4.73396 5.12401 4.73396 5.44101 4.92896 5.63601L6.34196 7.05001C6.43997 7.14701 6.56797 7.19601 6.69597 7.19601C6.82397 7.19601 6.95196 7.14701 7.04896 7.05001C7.24496 6.85401 7.24496 6.53801 7.04896 6.34301Z" fill="#3A4047"/>
<path d="M5.26204 8.66801L3.41504 7.90201C3.16104 7.79501 2.86704 7.91801 2.76104 8.17301C2.65504 8.42801 2.77604 8.72101 3.03204 8.82601L4.87904 9.59201C4.94104 9.61801 5.00604 9.63001 5.07004 9.63001C5.26604 9.63001 5.45204 9.51401 5.53204 9.32101C5.63804 9.06601 5.51704 8.77301 5.26204 8.66801Z" fill="#3A4047"/>
<path d="M16.5 16H7.5C7.223 16 7 16.224 7 16.5V19.5C7 19.776 7.223 20 7.5 20H16.5C16.776 20 17 19.776 17 19.5V16.5C17 16.224 16.776 16 16.5 16ZM16 19H8V17H16V19Z" fill="#3A4047"/>
</svg>
