<svg width="48" height="48" viewBox="0 0 48 48" fill="none" xmlns="http://www.w3.org/2000/svg">
<path d="M46.3999 23.84C46.3995 23.76 46.3974 23.6806 46.3964 23.6008C46.3951 23.4916 46.3938 23.3825 46.3915 23.2736C46.3909 23.2467 46.39 23.2199 46.3893 23.193C46.2366 16.6444 44.2341 10.7392 41.1007 6.52612C38.3153 2.76113 34.6353 0.333469 30.5599 0C30.4799 0 30.4799 0 30.3999 0C30.3427 0.0050625 30.286 0.0124688 30.229 0.0185625C30.0202 0.0075 29.8107 0 29.5999 0H18.4C14.2391 0 10.4326 2.17238 7.49854 5.75766C7.4151 5.829 7.3461 5.91478 7.29407 6.01172C3.80273 10.4181 1.59998 16.8571 1.59998 24C1.59998 37.2 9.11994 48 18.4 48H29.6C29.8282 48 30.0549 47.9916 30.2808 47.9786C30.3472 47.9858 30.4134 47.9941 30.4799 48C38.1599 47.36 44.56 39.52 46.0799 28.72C46.0888 28.6365 46.0974 28.5518 46.1062 28.4678C46.2983 27.019 46.3999 25.5259 46.3999 24V23.84ZM19.9406 36.5955C19.9236 36.5026 19.8881 36.4151 19.8365 36.3374C18.4189 32.7965 17.5999 28.5565 17.5999 24.0001C17.5999 12.1894 23.1765 2.50078 30.2826 1.62375C38.3652 2.15231 44.8 12.0157 44.8 24C44.8 35.9851 38.3644 45.8489 30.2812 46.3764C25.9368 45.8463 22.2086 42.0933 19.9406 36.5955ZM4.19544 31.9671C4.37029 31.9124 4.54513 31.7965 4.71998 31.68L5.75994 30.08L7.43994 31.76C7.75991 32.0799 8.23991 32.0799 8.55998 31.76L10.4 29.9199L12.32 31.8399C12.64 32.1599 13.12 32.1599 13.44 31.8399L15.36 29.9199L16.6747 31.0962C16.9536 32.5235 17.3144 33.8943 17.7494 35.1946L16.3201 34.4799C15.9201 34.2399 15.5202 34.4 15.2802 34.7199L14.2402 36.32L12.5602 34.64C12.2402 34.32 11.7602 34.32 11.4402 34.64L9.59995 36.48L7.75991 34.64C7.43994 34.32 6.95994 34.32 6.63988 34.64L5.48488 35.795C4.97638 34.5897 4.54335 33.309 4.19544 31.9671ZM3.20338 24.3938L5.19998 25.5201C5.51994 25.6801 5.91998 25.6 6.15998 25.36L8.00001 23.52L9.92001 25.36C10.24 25.68 10.72 25.68 11.04 25.36L12.96 23.44L16.0222 25.2916C16.0607 26.4421 16.1498 27.5716 16.2871 28.6738L15.68 28.1601C15.36 27.9201 14.88 28 14.64 28.24L12.8 30.0801L10.96 28.24C10.64 27.9201 10.16 27.9201 9.83994 28.24L7.99991 30.0801L6.15988 28.24C5.99985 28.08 5.75985 28 5.51985 28C5.27985 28 5.03985 28.1601 4.87982 28.32L3.75604 30.0056C3.41704 28.2136 3.22616 26.3327 3.20338 24.3938ZM5.81666 11.4512L7.59988 12.64C7.83988 12.8001 8.23991 12.8001 8.47991 12.64L10.3999 11.3601L12.3999 12.7201C12.6399 12.8801 13.0399 12.8801 13.2799 12.7201L15.2799 11.3601L17.829 12.5982C17.4084 13.8238 17.0534 15.1122 16.7715 16.4518L15.7598 15.4401C15.4398 15.1201 14.9598 15.1201 14.6398 15.4401L12.7997 17.2801L10.9597 15.4401C10.6397 15.1201 10.1597 15.1201 9.83966 15.4401L7.99991 17.28L6.15988 15.44C5.99985 15.2799 5.83991 15.2 5.59991 15.2C5.35991 15.2 5.19988 15.2799 5.03994 15.44L4.09907 16.4134C4.5321 14.6468 5.11166 12.9818 5.81666 11.4512ZM8.39263 7.15537L13.4399 5.68003L15.52 7.04006C15.76 7.20009 16.16 7.20009 16.4 7.04006L18.4 5.68003L20.6313 6.76388C19.7732 8.07797 19.0137 9.54881 18.3704 11.1453L15.44 9.68006C15.2 9.60009 14.88 9.60009 14.64 9.76003L12.72 11.04L10.8 9.76003C10.56 9.6 10.16 9.6 9.92001 9.76003L8.00001 11.04L6.54144 10.0069C7.10104 8.97872 7.72054 8.02406 8.39263 7.15537ZM13.1999 21.76C12.88 21.6 12.4799 21.6801 12.2399 21.9201L10.3999 23.7601L8.55988 21.9201C8.23991 21.6001 7.75991 21.6001 7.43985 21.9201L5.43988 23.92L3.22851 22.6468C3.27726 21.4505 3.38994 20.2789 3.56198 19.1392C3.66126 19.0991 3.76044 19.0395 3.83994 18.9601L5.59991 17.1201L7.43994 18.96C7.75991 19.28 8.23991 19.28 8.55998 18.96L10.4 17.12L12.24 18.96C12.56 19.28 13.04 19.28 13.3601 18.96L15.2001 17.12L16.2401 18.1599C16.2997 18.2196 16.3649 18.268 16.4336 18.3054C16.1774 19.9599 16.0301 21.679 16.0044 23.4426L13.1999 21.76ZM25.7203 1.60003C24.1871 2.5425 22.7773 3.86372 21.5342 5.48719L18.7199 4.08C18.4799 4.00003 18.16 4.00003 17.92 4.15997L16 5.43994L14.08 4.15997C13.84 3.99994 13.6 3.99994 13.36 3.99994L10.5877 4.79203C12.8702 2.7675 15.5423 1.59994 18.4 1.59994H25.7203V1.60003ZM6.19213 37.3278L7.19994 36.32L9.03998 38.16C9.35994 38.48 9.83994 38.48 10.16 38.16L11.9999 36.32L13.84 38.16C14 38.32 14.1599 38.4 14.3999 38.4C14.7199 38.4 14.9599 38.24 15.04 38L16.24 36.1599L18.5505 37.3152C19.1522 38.7359 19.8479 40.0504 20.6251 41.2365L19.1199 42.24L17.1999 40.96C16.9599 40.8 16.5599 40.8 16.3199 40.96L14.3999 42.24L12.4799 40.96C12.2399 40.8 11.8399 40.8 11.5999 40.96L9.62291 42.2781C8.30985 40.9041 7.1511 39.231 6.19213 37.3278ZM18.4 46.4C15.6215 46.4 13.0184 45.2963 10.7783 43.3745L11.9999 42.56L13.9999 43.8399C14.2399 44 14.6399 44 14.8799 43.8399L16.7999 42.56L18.64 43.92C18.88 44.08 19.28 44.08 19.52 43.92L21.5652 42.5566C22.8069 44.1614 24.2152 45.4667 25.748 46.4001H18.4V46.4Z" fill="#67707E"/>
<path d="M31.2 6.3999C27.058 6.3999 23.5856 11.0343 22.2209 17.6809C22.2128 17.7199 22.2047 17.759 22.1969 17.7981C22.1603 17.9803 22.125 18.1637 22.0916 18.3486C22.0801 18.412 22.0694 18.4757 22.0583 18.5393C22.0357 18.6693 22.0139 18.8 21.9929 18.9314C21.9789 19.019 21.9649 19.1067 21.9517 19.1948C21.9296 19.3415 21.9086 19.4892 21.8885 19.6376C21.8764 19.7269 21.8647 19.8165 21.8534 19.9061C21.8365 20.0395 21.8205 20.1737 21.8053 20.3084C21.793 20.417 21.7814 20.526 21.7702 20.6352C21.7576 20.7577 21.7456 20.8807 21.7345 21.0043C21.7272 21.0848 21.7198 21.1653 21.713 21.2462C21.6982 21.4246 21.6848 21.6039 21.6729 21.7842C21.6685 21.8513 21.6646 21.9187 21.6606 21.986C21.651 22.1449 21.6426 22.3046 21.6353 22.4649C21.6332 22.5115 21.6306 22.5578 21.6287 22.6045C21.6204 22.8051 21.6144 23.0071 21.6097 23.2097C21.6085 23.2617 21.6075 23.3135 21.6065 23.3656C21.6026 23.5761 21.5999 23.7874 21.5999 24C21.5999 24.2126 21.6026 24.4238 21.6065 24.6344C21.6074 24.6863 21.6085 24.7382 21.6097 24.7902C21.6144 24.9929 21.6205 25.1947 21.6287 25.3954C21.6306 25.442 21.6332 25.4884 21.6353 25.535C21.6426 25.6953 21.651 25.8549 21.6606 26.0138C21.6646 26.0811 21.6685 26.1485 21.6729 26.2157C21.6849 26.396 21.6982 26.5754 21.713 26.7538C21.7197 26.8346 21.7272 26.9151 21.7345 26.9957C21.7457 27.1192 21.7576 27.2421 21.7702 27.3647C21.7814 27.4739 21.793 27.5829 21.8053 27.6917C21.8205 27.8263 21.8365 27.9604 21.8534 28.0938C21.8647 28.1836 21.8764 28.273 21.8885 28.3623C21.9086 28.5107 21.9296 28.6582 21.9517 28.8048C21.965 28.8931 21.979 28.9808 21.993 29.0686C22.014 29.1999 22.0358 29.3305 22.0583 29.4604C22.0694 29.5241 22.0801 29.5878 22.0916 29.6512C22.1249 29.8362 22.1602 30.0196 22.1968 30.2016C22.2046 30.2408 22.2127 30.2799 22.2208 30.319C23.5854 36.9656 27.0579 41.5999 31.1999 41.5999C36.5598 41.5999 40.7999 33.84 40.7999 24C40.7999 14.16 36.5599 6.3999 31.2 6.3999ZM23.3065 26.5301C23.3024 26.4807 23.2978 26.4315 23.2938 26.382C23.288 26.3086 23.283 26.2348 23.2777 26.1611C23.2703 26.0573 23.2633 25.9534 23.257 25.8492C23.2534 25.7903 23.2497 25.7314 23.2465 25.6725C23.2376 25.5099 23.2295 25.347 23.2231 25.1833C23.222 25.1536 23.2213 25.1236 23.2201 25.0938C23.215 24.9493 23.2109 24.8042 23.2077 24.6588C23.2066 24.6122 23.2057 24.5656 23.2049 24.5188C23.2019 24.3463 23.1999 24.1735 23.1999 24C23.1999 23.8488 23.2017 23.6981 23.2035 23.5474C23.248 20.5634 23.7299 17.7469 24.5217 15.3518C25.6965 17.356 26.4 20.5213 26.4 23.9999C26.4 27.4785 25.6965 30.6437 24.5218 32.648C23.9165 30.8172 23.4925 28.7402 23.3065 26.5301ZM31.2 39.9999C28.8469 39.9999 26.6839 37.8159 25.2018 34.4312C26.8963 32.349 27.9999 28.3819 27.9999 23.9999C27.9999 19.6178 26.8962 15.6508 25.2018 13.5686C26.6838 10.1838 28.8468 7.99984 31.2 7.99984C35.52 7.99984 39.1999 15.3599 39.1999 23.9999C39.1999 32.6399 35.52 39.9999 31.2 39.9999Z" fill="#67707E"/>
</svg>
