<svg width="47" height="46" viewBox="0 0 47 46" fill="none" xmlns="http://www.w3.org/2000/svg">
<path d="M23.998 0.359985C11.316 0.359985 0.998047 10.594 0.998047 23.178C0.998047 28.172 2.62805 32.796 5.38005 36.558L2.50805 45.034L11.346 42.226C14.976 44.61 19.326 46 24 46C36.68 46 46.998 35.764 46.998 23.18C46.998 10.598 36.682 0.359985 23.998 0.359985ZM32.894 35.756C31.664 35.868 31.664 36.756 24.848 34.094C18.032 31.43 13.728 24.492 13.392 24.048C10.248 19.898 9.42205 15.5 13 11.618C14.134 10.392 16.952 10.442 17.584 11.954C18.142 13.284 19.484 16.56 19.652 16.892C19.82 17.226 19.934 17.614 19.708 18.056C19.44 18.59 19.162 19.216 18.032 20.332C17.696 20.664 17.346 21.024 17.738 21.688C18.128 22.356 19.472 24.532 21.466 26.298C24.028 28.564 26.188 29.266 26.858 29.598C27.528 29.93 27.92 29.876 28.312 29.43C28.702 28.984 29.99 27.488 30.436 26.822C30.884 26.156 31.33 26.268 31.946 26.49C32.56 26.71 35.856 28.32 36.528 28.654C37.198 28.984 37.646 29.154 37.812 29.43C38.82 31.11 36.428 35.438 32.894 35.756Z" fill="white"/>
</svg>
