<svg width="48" height="48" viewBox="0 0 48 48" fill="none" xmlns="http://www.w3.org/2000/svg">
<g clip-path="url(#clip0)">
<path d="M47.5919 11.1376L42.7032 6.24961C43.3208 4.75312 42.9779 3.03207 41.8338 1.88654L41.1202 1.17182C39.5574 -0.390606 37.0239 -0.390606 35.4614 1.17182L30.0884 6.54561C29.189 7.44899 28.7762 8.72824 28.9769 9.98697L21.6736 17.2877C21.0131 17.1635 20.3306 17.3181 19.7881 17.7152L12.191 23.289C12.1581 23.3132 12.1273 23.3399 12.0991 23.3692L1.03536 34.433C0.421749 35.0462 0.0773926 35.8782 0.0773926 36.7456C0.0773926 37.6131 0.421749 38.4451 1.03536 39.0583L3.94737 41.9707C4.56098 42.584 5.39293 42.9287 6.26041 42.9287C7.12753 42.9287 7.95948 42.584 8.57309 41.9707L19.6383 30.9059C19.6676 30.8773 19.6943 30.8462 19.7185 30.8132L25.2923 23.2154C25.6887 22.6732 25.8433 21.9914 25.7187 21.3317L33.0205 14.0299C33.2227 14.0647 33.4272 14.0844 33.6319 14.0881C34.6932 14.0903 35.7116 13.6694 36.4619 12.9184L37.1268 12.2531L41.8027 16.9301C42.4376 17.5621 43.464 17.5621 44.0989 16.9301L47.5926 13.436C48.2264 12.8008 48.226 11.7725 47.5919 11.1376ZM23.9991 22.271L18.4634 29.8168L7.44148 40.8391C6.78061 41.4703 5.73985 41.4703 5.07898 40.8391L2.16697 37.9267C1.5149 37.2743 1.5149 36.217 2.16697 35.5646L13.1908 24.5422L20.7365 19.0069C21.0732 18.7578 21.5414 18.7941 21.8359 19.0915L23.9167 21.1723C24.2134 21.4672 24.2482 21.935 23.9991 22.271ZM24.8963 19.8901L23.1141 18.1097L29.6066 11.6172C29.7477 11.8278 29.9085 12.0242 30.0869 12.2044L30.8005 12.9184C30.9808 13.0964 31.1771 13.2573 31.387 13.3983L24.8963 19.8901ZM33.1462 12.4367C33.055 12.3883 32.9546 12.359 32.8517 12.3502C32.5069 12.2359 32.193 12.0443 31.934 11.7897L31.22 11.0754C30.9632 10.816 30.7701 10.5006 30.6558 10.154C30.6463 10.0529 30.6174 9.95437 30.5701 9.86462C30.4053 9.07333 30.6492 8.252 31.22 7.67978L36.593 2.30416C37.5433 1.39785 39.038 1.39785 39.9886 2.30416L40.7022 3.01889C41.4906 3.80211 41.6327 5.02604 41.0459 5.96936C41.0151 6.00783 40.9883 6.04922 40.9656 6.09282C40.8872 6.20675 40.7986 6.31408 40.7015 6.41299L38.8896 8.22636L35.3303 11.7868C34.7581 12.3568 33.9371 12.6011 33.1462 12.4367ZM42.9329 15.7978L38.2577 11.1215L39.4578 9.9214L44.1396 14.6028L42.9329 15.7978ZM45.2737 13.4767L40.5872 8.79052L41.7829 7.59479L46.4603 12.3077L45.2737 13.4767Z" fill="#67707E"/>
<path d="M12.6834 27.4437L11.5189 28.609C11.3108 28.8097 11.2273 29.1076 11.3005 29.3871C11.3738 29.667 11.5925 29.8857 11.8724 29.9586C12.1519 30.0318 12.4497 29.9487 12.6505 29.7406L13.8147 28.576C14.1275 28.2635 14.1279 27.7569 13.8154 27.444C13.5029 27.1315 12.9959 27.1312 12.6834 27.4437Z" fill="#67707E"/>
<path d="M9.18939 30.9384L4.53033 35.5953C4.32225 35.796 4.23873 36.0935 4.31199 36.3734C4.38526 36.6533 4.6036 36.872 4.88348 36.9449C5.16336 37.0181 5.46082 36.935 5.66158 36.7269L10.3203 32.0741C10.6339 31.7616 10.635 31.2546 10.3225 30.941C10.0104 30.6274 9.50298 30.6263 9.18939 30.9384Z" fill="#67707E"/>
<path d="M43.7614 32.3842C43.3295 31.6482 42.5404 31.1958 41.6869 31.1943H34.9422C34.059 31.194 33.2468 31.6786 32.8281 32.4564L29.4029 38.8171C29.0043 39.5622 29.0252 40.4619 29.4571 41.188L32.8336 46.8325C33.2688 47.5549 34.0499 47.9978 34.8935 48H41.7359C42.5492 48.0015 43.3079 47.5897 43.7501 46.9069L47.4153 41.2609C47.9135 40.5011 47.9365 39.5245 47.4753 38.7416L43.7614 32.3842ZM46.0748 40.3872L42.4089 46.0328C42.2613 46.2607 42.0085 46.398 41.7374 46.398H34.895C34.614 46.3969 34.3539 46.2497 34.2085 46.009L30.8312 40.3645C30.6873 40.1231 30.6803 39.8234 30.8136 39.5754L34.2389 33.2132C34.3788 32.9553 34.6488 32.7949 34.9422 32.7949H41.6869C41.9722 32.7956 42.2353 32.948 42.3778 33.1949L46.0942 39.5523C46.2466 39.8124 46.2386 40.1366 46.0734 40.3887L46.0748 40.3872Z" fill="#67707E"/>
<path d="M38.4795 35.9961C36.2694 35.9961 34.478 37.7875 34.478 39.9976C34.478 42.2073 36.2694 43.9987 38.4795 43.9987C40.6893 43.9987 42.4806 42.2073 42.4806 39.9976C42.4781 37.7886 40.6882 35.9987 38.4795 35.9961ZM38.4795 42.3982C37.1534 42.3982 36.0785 41.3233 36.0785 39.9976C36.0785 38.6714 37.1534 37.5966 38.4795 37.5966C39.8053 37.5966 40.8801 38.6714 40.8801 39.9976C40.8801 41.3233 39.8053 42.3982 38.4795 42.3982Z" fill="#67707E"/>
<path d="M23.5797 36.7964H18.1668C17.5608 36.7935 17.0058 37.1345 16.7351 37.6767L14.7346 41.6778C14.5104 42.1292 14.5104 42.6593 14.7346 43.1106L16.7351 47.1117C17.0036 47.6568 17.559 48.0016 18.1668 48.0001H23.5797C24.1857 48.003 24.7407 47.6616 25.0114 47.1198L27.0123 43.1183C27.2362 42.6673 27.2362 42.1372 27.0123 41.6859L25.0114 37.6844C24.7429 37.1397 24.1875 36.7949 23.5797 36.7964ZM23.5797 46.3996H18.1668L16.1662 42.3981L18.1668 38.3969H23.5797L25.5807 42.3981L23.5797 46.3996Z" fill="#67707E"/>
<path d="M20.8734 39.9971C19.5476 39.9971 18.4724 41.0719 18.4724 42.3977C18.4724 43.7238 19.5476 44.7986 20.8734 44.7986C22.1995 44.7986 23.2744 43.7238 23.2744 42.3977C23.2744 41.0719 22.1995 39.9971 20.8734 39.9971ZM20.8734 43.1981C20.4316 43.1981 20.0733 42.8398 20.0733 42.3977C20.0733 41.9559 20.4316 41.5976 20.8734 41.5976C21.3156 41.5976 21.6738 41.9559 21.6738 42.3977C21.6738 42.8398 21.3156 43.1981 20.8734 43.1981Z" fill="#67707E"/>
</g>
<defs>
<clipPath id="clip0">
<rect width="48" height="48" fill="white"/>
</clipPath>
</defs>
</svg>
