<svg width="56" height="56" viewBox="0 0 56 56" fill="none" xmlns="http://www.w3.org/2000/svg">
<g clip-path="url(#clip0)">
<path d="M51.6207 21.5709C49.198 21.3845 47.2413 20.2663 46.1232 18.496L45.8436 18.0301C44.3528 15.5142 41.6506 14.0234 38.7621 14.0234H26.5558C24.2263 14.0234 21.9901 15.0484 20.406 16.8188L19.1015 18.1233C16.6789 20.8254 13.4176 22.5957 9.7837 23.0617L4.09987 23.8071C1.77035 24.1798 0 26.1366 0 28.466V32.659C0 35.2679 2.04988 37.3179 4.65894 37.3179H8.46574C8.91288 39.9532 11.2193 41.9769 13.9767 41.9769C16.7342 41.9769 19.0405 39.9532 19.4877 37.3179H38.2828C38.7299 39.9532 41.0363 41.9769 43.7937 41.9769C46.5512 41.9769 48.8576 39.9532 49.3047 37.3179H51.248C53.857 37.3179 55.907 35.268 56.0001 32.7522V26.2298C56 23.8071 54.0433 21.7571 51.6207 21.5709V21.5709ZM13.9767 40.1133C11.9268 40.1133 10.2496 38.4361 10.2496 36.3862C10.2496 34.3363 11.9268 32.6591 13.9767 32.6591C16.0266 32.6591 17.7038 34.3363 17.7038 36.3862C17.7038 38.4361 16.0266 40.1133 13.9767 40.1133ZM43.7937 40.1133C41.7439 40.1133 40.0667 38.4361 40.0667 36.3862C40.0667 34.3363 41.7439 32.6591 43.7937 32.6591C45.8436 32.6591 47.5208 34.3363 47.5208 36.3862C47.5208 38.4361 45.8436 40.1133 43.7937 40.1133ZM54.0433 32.659C54.0433 34.243 52.832 35.4543 51.2479 35.4543H49.3046C48.99 33.6002 47.7549 32.05 46.0895 31.2934C46.0526 31.2765 46.0159 31.2591 45.9785 31.243C45.9551 31.2329 45.9313 31.2239 45.9077 31.2141C45.8473 31.1891 45.7866 31.1647 45.7251 31.1419C45.7086 31.1357 45.6917 31.1301 45.675 31.1241C45.6068 31.0994 45.5379 31.0758 45.4683 31.0537C45.4533 31.0489 45.4382 31.0445 45.423 31.0399C45.3523 31.0181 45.2808 30.9976 45.2088 30.9787C45.1928 30.9746 45.1769 30.9704 45.1608 30.9664C45.0901 30.9485 45.0188 30.9319 44.9468 30.9167C44.9287 30.9129 44.9107 30.9089 44.8926 30.9053C44.8231 30.8914 44.7531 30.8789 44.6827 30.8676C44.6618 30.8642 44.6411 30.8606 44.6201 30.8574C44.5523 30.8473 44.4838 30.8388 44.4152 30.8312C44.3919 30.8286 44.3688 30.8255 44.3454 30.8231C44.2767 30.8163 44.2075 30.8114 44.138 30.8072C44.1151 30.8058 44.0925 30.8036 44.0695 30.8025C43.9781 30.798 43.886 30.7954 43.7933 30.7954C43.7006 30.7954 43.6085 30.798 43.5172 30.8025C43.4942 30.8036 43.4715 30.8058 43.4486 30.8072C43.3791 30.8114 43.3099 30.8163 43.2412 30.8231C43.2179 30.8254 43.1947 30.8286 43.1715 30.8312C43.1028 30.8388 43.0343 30.8474 42.9665 30.8574C42.9455 30.8606 42.9248 30.8642 42.9038 30.8676C42.8334 30.8789 42.7635 30.8914 42.6941 30.9052C42.6758 30.9089 42.6578 30.9128 42.6397 30.9166C42.5678 30.9318 42.4965 30.9484 42.4258 30.9663C42.4098 30.9703 42.3938 30.9744 42.3778 30.9786C42.3058 30.9976 42.2344 31.018 42.1636 31.0399C42.1485 31.0445 42.1335 31.0489 42.1184 31.0537C42.0487 31.0758 41.9799 31.0994 41.9116 31.1241C41.895 31.1301 41.8783 31.1357 41.8617 31.1419C41.8001 31.1648 41.7393 31.1892 41.6788 31.2144C41.6553 31.2241 41.6316 31.2331 41.6084 31.2431C41.5709 31.2592 41.5341 31.2767 41.4971 31.2936C39.8319 32.0503 38.5968 33.6004 38.2823 35.4544H19.4877C19.1731 33.6004 17.9382 32.0504 16.2732 31.2937C16.236 31.2767 16.1992 31.2592 16.1617 31.2431C16.1384 31.2331 16.1147 31.2241 16.0912 31.2144C16.0307 31.1894 15.9699 31.1649 15.9083 31.1419C15.8919 31.1357 15.875 31.1301 15.8584 31.1241C15.7901 31.0994 15.7212 31.0758 15.6516 31.0537C15.6367 31.049 15.6215 31.0446 15.6064 31.0399C15.5357 31.0181 15.4643 30.9976 15.3922 30.9786C15.3762 30.9745 15.3603 30.9703 15.3442 30.9663C15.2735 30.9484 15.2022 30.9318 15.1302 30.9166C15.1121 30.9128 15.0941 30.9088 15.076 30.9052C15.0065 30.8913 14.9365 30.8788 14.8661 30.8675C14.8452 30.8641 14.8245 30.8605 14.8035 30.8573C14.7357 30.8471 14.6673 30.8387 14.5986 30.8311C14.5753 30.8285 14.5522 30.8254 14.5288 30.823C14.4601 30.8162 14.3909 30.8113 14.3214 30.8071C14.2985 30.8056 14.2759 30.8035 14.2529 30.8024C14.1615 30.7979 14.0694 30.7953 13.9767 30.7953C13.884 30.7953 13.792 30.7979 13.7006 30.8024C13.6776 30.8035 13.6549 30.8056 13.632 30.8071C13.5625 30.8113 13.4933 30.8162 13.4246 30.823C13.4013 30.8253 13.3781 30.8285 13.3549 30.8311C13.2862 30.8387 13.2177 30.8473 13.1499 30.8573C13.1289 30.8605 13.1082 30.8641 13.0873 30.8675C13.0169 30.8788 12.9469 30.8913 12.8775 30.9052C12.8593 30.9088 12.8412 30.9128 12.8232 30.9166C12.7512 30.9318 12.6799 30.9484 12.6092 30.9663C12.5932 30.9703 12.5772 30.9744 12.5612 30.9786C12.4892 30.9976 12.4179 31.018 12.347 31.0398C12.3319 31.0443 12.3168 31.0488 12.3017 31.0536C12.2321 31.0757 12.1633 31.0993 12.095 31.1239C12.0783 31.13 12.0615 31.1356 12.0449 31.1417C11.9834 31.1647 11.9227 31.189 11.8623 31.214C11.8387 31.2237 11.8149 31.2328 11.7915 31.2429C11.7542 31.259 11.7175 31.2764 11.6805 31.2933C10.0151 32.0499 8.78 33.6001 8.46541 35.4542H4.65894C3.07488 35.4542 1.8636 34.2429 1.8636 32.6589V28.4659C1.8636 27.0682 2.88859 25.8569 4.28627 25.7637L9.97009 25.0182C14.07 24.5523 17.7971 22.5955 20.4993 19.5207L21.8038 18.0298C23.0151 16.6322 24.6923 15.8867 26.5559 15.8867H38.7622C40.9985 15.8867 43.0484 17.098 44.1665 18.8684L44.4461 19.3344C45.8437 21.6638 48.4527 23.1547 51.4344 23.341C52.9252 23.4341 54.0434 24.6455 54.0434 26.1363V32.659H54.0433Z" fill="#67707E"/>
</g>
<defs>
<clipPath id="clip0">
<rect width="56" height="56" fill="white"/>
</clipPath>
</defs>
</svg>
