<svg width="24" height="24" viewBox="0 0 24 24" fill="none" xmlns="http://www.w3.org/2000/svg">
<g clip-path="url(#clip0)">
<path d="M23.7068 22.293L13.4138 12L23.7058 1.70701C24.0968 1.31701 24.0968 0.684012 23.7058 0.293012C23.3148 -0.0979883 22.6828 -0.0979883 22.2918 0.293012L11.9998 10.586L1.70579 0.292012C1.31479 -0.0979883 0.682785 -0.0979883 0.291785 0.292012C-0.0992149 0.683012 -0.0992149 1.31501 0.291785 1.70601L10.5858 12L0.291785 22.294C-0.0982148 22.684 -0.0992149 23.318 0.291785 23.708C0.682785 24.099 1.31579 24.098 1.70579 23.708L11.9998 13.414L22.2928 23.706C22.6828 24.097 23.3158 24.097 23.7068 23.706C24.0978 23.316 24.0968 22.683 23.7068 22.293Z" fill="#C4C6CA"/>
</g>
<defs>
<clipPath id="clip0">
<rect width="24" height="24" fill="white"/>
</clipPath>
</defs>
</svg>
