<svg width="48" height="48" viewBox="0 0 48 48" fill="none" xmlns="http://www.w3.org/2000/svg">
<path d="M47.4491 10.9783L47.369 10.8982L37.192 0.721201C36.3105 -0.2404 34.788 -0.2404 33.8264 0.721201L32.7045 1.8431C32.5442 2.0034 32.4641 2.1636 32.4641 2.40401C32.4641 2.64441 32.5442 2.8047 32.7045 2.96491L33.2654 3.52581L32.2218 4.56939L31.6627 4.00661C31.3422 3.68611 30.8614 3.68611 30.5408 4.00661C30.2202 4.32712 30.2203 4.80792 30.5408 5.12851L31.0999 5.69129L29.8999 6.89151L28.778 5.76961C28.6177 5.60931 28.4575 5.52921 28.2171 5.52921C28.0568 5.52921 27.8164 5.60931 27.7363 5.76961L14.1135 19.3923C13.793 19.7128 13.793 20.1936 14.1135 20.5142L14.9148 21.3155C16.0367 22.4374 17.7996 22.4374 18.9215 21.3155L20.6044 19.6327C21.2454 19.683 21.8705 19.8103 22.4706 20.0051L9.78633 32.6144C8.58432 32.2137 7.46243 32.2137 6.42072 32.5343L4.73792 30.9316C4.41742 30.6111 3.93661 30.6111 3.61602 30.9316L0.25041 34.2972C0.090112 34.4575 0.0100098 34.6177 0.0100098 34.8581C0.0100098 35.0985 0.090112 35.2588 0.170308 35.3389L1.85311 37.0217C0.971612 39.586 1.69281 42.4708 3.61602 44.394C5.61932 46.3973 8.50413 47.0384 11.0684 46.1569L12.7512 47.7596C12.9115 47.9199 13.1519 48 13.3121 48C13.4723 48 13.7128 47.9199 13.873 47.7596L17.2387 44.4741C17.3989 44.3138 17.479 44.1536 17.479 43.9132C17.479 43.6728 17.3989 43.5125 17.2387 43.3523L15.5558 41.6695C15.9565 40.5476 15.8763 39.5059 15.4757 38.3039L28.1079 25.5966C28.3246 26.2271 28.4722 26.8866 28.5375 27.566L26.8547 29.2488C25.7328 30.3707 25.7328 32.1336 26.8547 33.2555L27.656 34.0568C27.8163 34.2171 27.9765 34.2972 28.2169 34.2972C28.4573 34.2972 28.6977 34.2171 28.6977 34.0568L42.3206 20.434C42.6411 20.1135 42.6411 19.6327 42.3206 19.3121L41.1987 18.1902L42.3626 17.0264L42.9616 17.6293C43.1219 17.7896 43.2821 17.8697 43.5225 17.8697C43.7629 17.8697 43.9232 17.7896 44.0834 17.6293C44.4039 17.3088 44.4039 16.828 44.0834 16.5074L43.4844 15.9045L44.5642 14.8246L45.1251 15.3855C45.4456 15.706 45.9264 15.706 46.247 15.3855L47.3689 14.2636L47.449 14.1835C48.1703 13.3021 48.1703 11.8597 47.4491 10.9783ZM14.0334 37.5826C13.793 37.823 13.7129 38.1435 13.8731 38.4641C14.434 39.9866 14.2738 40.8681 13.9532 41.5893C13.7929 41.9098 13.8731 42.2304 14.1135 42.4708L15.5559 43.9132L13.3122 46.0768L11.7897 44.7145C11.6294 44.5542 11.389 44.4741 11.2288 44.4741C11.1487 44.4741 11.0685 44.4741 10.9884 44.5542C8.82482 45.4357 6.42081 44.9549 4.81811 43.3522C3.21541 41.7495 2.73461 39.2654 3.61611 37.1819C3.77641 36.8614 3.69621 36.5408 3.45581 36.3004L2.01341 34.8581L4.25712 32.6144L5.69952 34.0568C5.93992 34.2972 6.26042 34.3773 6.58102 34.2171C7.30222 33.8966 8.18372 33.6562 9.70623 34.2972C10.0267 34.4575 10.3473 34.3773 10.5877 34.1369L24.0814 20.723C25.4848 21.5291 26.6639 22.7252 27.4622 24.154L14.0334 37.5826ZM28.2171 32.374L27.9767 32.1336C27.4959 31.6528 27.4959 30.8515 27.9767 30.3707L29.8999 28.4475C30.0602 28.2872 30.1403 28.0468 30.1403 27.8064C30.0589 26.485 29.7142 25.2155 29.1619 24.0522C29.1481 23.995 29.1274 23.9374 29.0986 23.8798C28.6211 22.925 27.9909 22.0388 27.2492 21.2572C27.1938 21.1983 27.1377 21.14 27.0811 21.0824C27.0654 21.0665 27.05 21.0503 27.0342 21.0345C26.1977 20.1937 25.2279 19.4901 24.1686 18.9672C24.1652 18.9654 24.1618 18.9638 24.1584 18.9621C22.9601 18.3722 21.6476 18.0138 20.2839 17.9498C20.1236 17.9498 19.8832 18.0299 19.723 18.1902L17.7998 20.1134C17.319 20.5942 16.5177 20.5942 16.0369 20.1134L15.7965 19.873L28.2171 7.45242L29.3389 8.57422C29.3389 8.57422 29.3389 8.57422 29.339 8.57432L39.596 18.7512L40.7179 19.8731L28.2171 32.374ZM40.1169 17.1085L31.0218 8.01341L32.2183 6.81686L41.2842 15.9413L40.1169 17.1085ZM33.3402 5.69486L34.4675 4.56761L43.5626 13.6627L42.406 14.8193L33.3402 5.69486ZM46.3272 13.1419L45.8464 13.6227L45.2855 13.0618C45.2081 12.9844 45.1213 12.9261 45.0297 12.8861L35.0284 2.88481C35.0284 2.88481 35.0284 2.88481 35.0283 2.88471L34.4674 2.32381L35.0283 1.76291C35.3488 1.4424 35.8296 1.4424 36.1502 1.76291L46.3271 11.9398C46.5676 12.2604 46.5676 12.8213 46.3272 13.1419Z" fill="#67707E"/>
<path d="M23.1687 23.8795L15.5559 31.4923C15.2354 31.8128 15.2354 32.2936 15.5559 32.6142C15.7162 32.7745 15.8764 32.8546 16.1168 32.8546C16.2771 32.8546 16.5175 32.7745 16.6777 32.6142L24.2905 25.0014C24.611 24.6809 24.611 24.2001 24.2905 23.8795C23.97 23.559 23.4892 23.559 23.1687 23.8795Z" fill="#67707E"/>
<path d="M5.93992 36.6204C5.13861 37.3416 4.73792 38.3833 4.73792 39.4251C4.73792 40.4669 5.21872 41.5086 5.93992 42.2298C6.66112 43.0311 7.70282 43.4318 8.74462 43.4318C9.78633 43.4318 10.8281 42.951 11.6294 42.2298C12.4307 41.5086 12.8314 40.4669 12.8314 39.4251C12.8314 38.3833 12.3506 37.3416 11.6294 36.6204C10.0267 35.0979 7.46252 35.0979 5.93992 36.6204ZM10.4274 41.1079C9.54593 41.9894 7.94332 41.9894 7.06182 41.1079C6.58102 40.7072 6.34062 40.0662 6.34062 39.4251C6.34062 38.784 6.58102 38.2231 7.06182 37.7423C7.54262 37.2615 8.10352 37.0211 8.74462 37.0211C9.38572 37.0211 9.94662 37.1814 10.4274 37.7423C10.9082 38.143 11.1486 38.784 11.1486 39.4251C11.1486 40.0662 10.9082 40.6271 10.4274 41.1079Z" fill="#67707E"/>
<path d="M30.4608 14.3438C28.6979 14.3438 27.2555 15.7862 27.2555 17.5491C27.2555 19.312 28.6979 20.7544 30.4608 20.7544C32.2237 20.7544 33.6661 19.312 33.6661 17.5491C33.6662 15.7862 32.2238 14.3438 30.4608 14.3438ZM30.4608 19.1518C29.5793 19.1518 28.8581 18.4306 28.8581 17.5491C28.8581 16.6676 29.5793 15.9464 30.4608 15.9464C31.3423 15.9464 32.0635 16.6676 32.0635 17.5491C32.0635 18.4306 31.3423 19.1518 30.4608 19.1518Z" fill="#67707E"/>
</svg>
