<svg width="48" height="48" viewBox="0 0 48 48" fill="none" xmlns="http://www.w3.org/2000/svg">
<path d="M24 0C10.8 0 0 10.8 0 24C0 37.2 10.8 48 24 48C37.2 48 48 37.2 48 24C48 10.8 37.2 0 24 0ZM24 46.4C11.68 46.4 1.60003 36.32 1.60003 24C1.60003 11.68 11.68 1.60003 24 1.60003C36.32 1.60003 46.4 11.68 46.4 24C46.4 36.32 36.32 46.4 24 46.4Z" fill="#67707E"/>
<path d="M24 26.3999C22.24 26.3999 20.8 27.8399 20.8 29.5999C20.8 31.3598 22.24 32.7998 24 32.7998C25.76 32.7998 27.2 31.3598 27.2 29.5999C27.2 27.8399 25.76 26.3999 24 26.3999ZM24 31.1999C23.12 31.1999 22.4 30.4799 22.4 29.5999C22.4 28.7198 23.12 27.9998 24 27.9998C24.88 27.9998 25.6 28.7198 25.6 29.5999C25.6 30.4799 24.88 31.1999 24 31.1999Z" fill="#67707E"/>
<path d="M29.6 20.7998C27.84 20.7998 26.4 22.2398 26.4 23.9998C26.4 25.7597 27.84 27.1997 29.6 27.1997C31.36 27.1997 32.8 25.7597 32.8 23.9998C32.8001 22.2398 31.3601 20.7998 29.6 20.7998ZM29.6 25.5998C28.72 25.5998 28 24.8798 28 23.9998C28 23.1197 28.72 22.3997 29.6 22.3997C30.48 22.3997 31.2 23.1197 31.2 23.9998C31.2 24.8798 30.48 25.5998 29.6 25.5998Z" fill="#67707E"/>
<path d="M24 21.6001C25.76 21.6001 27.2 20.1601 27.2 18.4002C27.2 16.6402 25.76 15.2002 24 15.2002C22.24 15.2002 20.8 16.6402 20.8 18.4002C20.8 20.1601 22.24 21.6001 24 21.6001ZM24 16.8001C24.88 16.8001 25.6 17.5201 25.6 18.4002C25.6 19.2802 24.88 20.0002 24 20.0002C23.12 20.0002 22.4 19.2802 22.4 18.4002C22.4 17.5201 23.12 16.8001 24 16.8001Z" fill="#67707E"/>
<path d="M18.4 20.7998C16.64 20.7998 15.2 22.2398 15.2 23.9998C15.2 25.7597 16.64 27.1997 18.4 27.1997C20.1599 27.1997 21.5999 25.7597 21.5999 23.9998C21.5999 22.2398 20.1599 20.7998 18.4 20.7998ZM18.4 25.5998C17.5199 25.5998 16.7999 24.8798 16.7999 23.9998C16.7999 23.1197 17.5199 22.3997 18.4 22.3997C19.28 22.3997 20 23.1197 20 23.9998C20 24.8798 19.2799 25.5998 18.4 25.5998Z" fill="#67707E"/>
<path d="M43.2001 24C43.2001 23.8489 43.1973 23.6949 43.1942 23.5402C43.1938 23.5252 43.1937 23.5102 43.1933 23.4952C43.1807 22.8456 43.1698 22.1874 43.3601 21.68C43.311 21.4345 43.1713 21.2195 42.9783 21.0897C42.7793 19.7951 42.4491 18.5425 42.0031 17.3449C42.079 17.1535 42.0869 16.9368 42.0002 16.72C41.3601 15.2 40.5602 13.76 39.5202 12.4C39.3963 12.2349 39.2087 12.113 39.0121 12.066C38.2416 11.0999 37.3803 10.2093 36.4414 9.40699C36.4039 9.23308 36.3081 9.0708 36.1603 8.9599C34.8003 7.91993 33.3603 7.0399 31.8403 6.39987C31.7283 6.35505 31.6164 6.33621 31.508 6.33799C30.0603 5.71774 28.5227 5.27037 26.921 5.02324C26.8574 4.99549 26.7902 4.97374 26.7203 4.95977C25.2883 4.76449 23.9621 4.72812 22.6127 4.85065C20.5623 4.99887 18.5988 5.47333 16.7734 6.22118C16.7557 6.22699 16.7381 6.23271 16.7204 6.23983C16.6637 6.26374 16.6072 6.2883 16.5507 6.31268C16.5457 6.31483 16.5407 6.31699 16.5357 6.31915C16.4485 6.35674 16.3617 6.39499 16.2751 6.43371C15.8941 6.60255 15.5194 6.7834 15.1518 6.97587C15.0712 7.01777 14.991 7.06033 14.9109 7.10337C14.891 7.11415 14.871 7.12474 14.8511 7.13552C14.0073 7.5933 13.1903 8.11587 12.4005 8.7199C12.3719 8.74137 12.3452 8.76527 12.3193 8.79021C11.1169 9.71702 10.0265 10.7825 9.07226 11.9622C9.03129 11.9969 8.99341 12.0359 8.96051 12.0798C8.77413 12.3235 8.59319 12.5698 8.4176 12.8186C6.60485 15.3337 5.38376 18.2996 4.96319 21.5086C4.96235 21.5124 4.96122 21.516 4.96047 21.5199C4.95963 21.5285 4.95879 21.5373 4.95794 21.5459C4.86747 22.2472 4.81638 22.9603 4.80457 23.6825C4.80204 23.7894 4.80054 23.8953 4.80054 23.9998C4.80054 24.1043 4.80204 24.2102 4.80457 24.3169C4.8446 26.7549 5.34476 29.0858 6.22188 31.2267C6.22769 31.2445 6.23341 31.2622 6.24054 31.2799C6.26444 31.3367 6.28901 31.3931 6.31338 31.4497C6.31544 31.4546 6.3176 31.4595 6.31976 31.4644C6.35744 31.5518 6.39569 31.6388 6.43451 31.7256C6.60335 32.1065 6.7841 32.481 6.97657 32.8486C7.01847 32.9291 7.06094 33.0093 7.10397 33.0893C7.11476 33.1092 7.12535 33.1293 7.13622 33.1493C7.59401 33.993 8.11657 34.8101 8.72051 35.5999C8.74029 35.6262 8.76213 35.6503 8.78491 35.6734C9.71313 36.8787 10.7806 37.9718 11.9628 38.9281C11.9975 38.9691 12.0365 39.007 12.0805 39.04C12.3242 39.2263 12.5705 39.4073 12.8193 39.5829C15.3344 41.3956 18.3003 42.6167 21.5093 43.0373C21.5131 43.038 21.5167 43.0392 21.5205 43.04C21.529 43.0408 21.5378 43.0417 21.5464 43.0425C22.2478 43.133 22.9609 43.1841 23.6832 43.1959C23.7901 43.1984 23.896 43.1999 24.0005 43.1999C24.1089 43.1999 24.219 43.1982 24.3298 43.1957C24.615 43.1908 24.8987 43.1796 25.1808 43.1622C25.6081 43.1414 26.026 43.1199 26.4005 43.1199C26.5066 43.0987 26.6066 43.0601 26.6969 43.0082C28.2756 42.7838 29.794 42.3656 31.2273 41.7785C31.2451 41.7727 31.2628 41.767 31.2805 41.7598C31.3373 41.7359 31.3938 41.7114 31.4503 41.687C31.4553 41.6849 31.4601 41.6828 31.4651 41.6806C31.5523 41.643 31.6391 41.6048 31.7257 41.5661C32.107 41.3971 32.4819 41.2163 32.8499 41.0235C32.9299 40.9818 33.0097 40.9395 33.0893 40.8968C33.1096 40.8858 33.13 40.875 33.1502 40.8641C33.9938 40.4064 34.8108 39.8838 35.6005 39.2799C35.6291 39.2584 35.6558 39.2345 35.6817 39.2095C36.884 38.2827 37.9744 37.2173 38.9287 36.0375C38.9697 36.0028 39.0076 35.9638 39.0406 35.9199C39.2269 35.6761 39.408 35.4297 39.5836 35.1808C41.3962 32.6659 42.6173 29.7 43.0379 26.491C43.0386 26.4872 43.0398 26.4835 43.0406 26.4798C43.0414 26.4713 43.0423 26.4625 43.0431 26.4538C43.1336 25.7525 43.1847 25.0393 43.1965 24.3171C43.1986 24.2105 43.2001 24.1046 43.2001 24ZM40.5048 30.0949L35.6801 27.2H41.3056C41.1206 28.1964 40.8513 29.164 40.5048 30.0949ZM38.2184 34.3398L32.6401 31.04C32.3201 30.88 31.9201 30.96 31.6801 31.2C31.52 31.3601 31.3601 31.6001 31.1201 31.76C30.8001 32 30.8001 32.4 30.9601 32.72L34.1958 38.3235C33.3234 38.9474 32.3917 39.493 31.4121 39.9517L28.16 34.32C27.92 33.92 27.52 33.84 27.2 33.92C26.8801 34 26.56 34.08 26.24 34.16C25.84 34.24 25.6 34.56 25.6 34.96V41.5199C24.48 41.5999 23.52 41.5999 22.4 41.5199H22.3336C22.3291 41.5195 22.3246 41.5192 22.3201 41.5187V34.96C22.3201 34.5599 22.0801 34.24 21.68 34.16C21.3601 34.08 20.96 33.92 20.6401 33.84C20.24 33.68 19.8401 33.84 19.6801 34.16L16.3274 39.8276C15.3767 39.3633 14.4737 38.8153 13.6272 38.1941L16.9601 32.56C17.1201 32.24 17.0401 31.84 16.8001 31.6C16.64 31.4399 16.4 31.28 16.2401 31.04C16.0001 30.72 15.6001 30.72 15.2801 30.88L9.63635 34.1391C9.01591 33.2643 8.47385 32.3307 8.01907 31.3494L13.6802 28.16C14.0802 27.92 14.1602 27.52 14.0802 27.2C14.0002 26.88 13.9202 26.56 13.8402 26.24C13.7602 25.84 13.4402 25.6 13.0402 25.6H6.48007C6.47229 25.5452 6.46582 25.4906 6.45944 25.4359C6.42072 24.9621 6.4001 24.4833 6.4001 23.9999C6.4001 23.4334 6.42832 22.8731 6.48129 22.3199H13.0401C13.4402 22.3199 13.7601 22.0799 13.8401 21.6799C13.9201 21.3599 14.0801 20.9599 14.1601 20.6399C14.3201 20.2399 14.1601 19.84 13.8401 19.6799L8.17244 16.3272C8.63679 15.3765 9.18476 14.4735 9.80604 13.6271L15.4401 16.96C15.7601 17.12 16.1601 17.0399 16.4001 16.7999C16.5602 16.6399 16.7201 16.3999 16.9601 16.24C17.2801 16 17.2801 15.5999 17.1201 15.28L13.861 9.63621C14.7359 9.01568 15.6696 8.47362 16.6512 8.01874L20.0001 13.68C20.2401 14.0801 20.6402 14.16 20.9601 14.0801C21.2801 14.0001 21.6002 13.92 21.9201 13.8401C22.3202 13.7601 22.5602 13.44 22.5602 13.0401V6.48002C23.5711 6.40783 24.4527 6.40146 25.4381 6.45958C25.5456 6.4684 25.6532 6.47768 25.7601 6.48846V13.0401C25.7601 13.4401 26.0001 13.7601 26.4002 13.8401C26.7201 13.92 27.1202 14.0801 27.4401 14.16C27.8402 14.3201 28.2401 14.16 28.4001 13.8401L31.7345 8.20315C32.6834 8.67124 33.5847 9.22212 34.4287 9.84668L31.12 15.44C30.96 15.76 31.04 16.16 31.28 16.4C31.4401 16.56 31.6801 16.72 31.84 16.96C32.08 17.2799 32.48 17.2799 32.8 17.12L38.3867 13.8939C39.0051 14.7701 39.5456 15.7046 39.9982 16.6872L34.4 19.92C34 20.16 33.92 20.5601 34 20.88C34.08 21.2 34.16 21.5201 34.24 21.84C34.32 22.2401 34.64 22.4801 35.04 22.4801H41.5331C41.5765 22.9813 41.5999 23.4881 41.5999 24C41.5999 24.5666 41.5717 25.1268 41.5188 25.68H35.0401C34.64 25.68 34.3201 25.92 34.2401 26.3201C34.1601 26.64 34.0001 27.0401 33.9201 27.36C33.7601 27.76 33.9201 28.16 34.2401 28.32L39.8461 31.6362C39.3839 32.588 38.8376 33.492 38.2184 34.3398ZM29.8267 40.6015C28.9533 40.9104 28.0493 41.153 27.12 41.321V36L29.8267 40.6015ZM20.8001 41.3055C19.8038 41.1206 18.8362 40.8513 17.9052 40.5048L20.8001 35.6801V41.3055ZM6.6791 27.12H12.0001L7.39863 29.8268C7.08982 28.9533 6.8471 28.0493 6.6791 27.12ZM7.49529 17.9051L12.32 20.8001H6.69457C6.87954 19.8037 7.14879 18.8361 7.49529 17.9051ZM18.2396 7.37515C19.1176 7.06868 20.0263 6.82962 20.9601 6.66527V12L18.2396 7.37515ZM27.44 6.74083C28.4215 6.93733 29.3739 7.21633 30.2901 7.56987L27.44 12.3201V6.74083ZM37.4955 12.7357L33.2801 15.2001L35.769 10.9428C36.3854 11.4992 36.9622 12.0986 37.4955 12.7357ZM36.2401 20.96L40.6663 18.3564C40.9533 19.1979 41.1777 20.0678 41.3347 20.96H36.2401ZM12.6418 10.5841L15.2 14.9601L10.8025 12.3892C11.3711 11.744 11.986 11.1406 12.6418 10.5841ZM10.5842 35.3583L14.9601 32.8001L12.3892 37.1976C11.744 36.629 11.1407 36.0141 10.5842 35.3583ZM35.3583 37.4159L32.8001 33.04L37.1976 35.6109C36.629 36.2561 36.0141 36.8594 35.3583 37.4159Z" fill="#67707E"/>
</svg>
